<?xml version="1.0" standalone="no"?>
<!DOCTYPE svg PUBLIC "-//W3C//DTD SVG 20010904//EN"
 "http://www.w3.org/TR/2001/REC-SVG-20010904/DTD/svg10.dtd">
<svg version="1.0" xmlns="http://www.w3.org/2000/svg"
 width="250.000000pt" height="250.000000pt" viewBox="0 0 250.000000 250.000000"
 preserveAspectRatio="xMidYMid meet">
<metadata>
Created by potrace 1.11, written by Peter Selinger 2001-2013
</metadata>
<g transform="translate(0.000000,250.000000) scale(0.100000,-0.100000)"
fill="#000000" stroke="none">
<path d="M333 2363 c2 -5 68 -119 146 -255 126 -218 161 -271 161 -240 0 8 23
48 170 297 29 50 53 96 53 103 0 6 3 12 7 12 6 0 50 73 50 84 0 3 -133 6 -296
6 -162 0 -293 -3 -291 -7z"/>
<path d="M979 2341 c6 -10 7 -21 4 -25 -3 -3 -1 -6 5 -6 6 0 19 -17 29 -37 9
-21 23 -44 30 -51 7 -8 11 -18 8 -23 -4 -5 -1 -9 4 -9 6 0 11 -7 11 -15 0 -8
4 -15 9 -15 8 0 23 -41 18 -48 -1 -2 6 -8 16 -13 9 -6 15 -14 12 -20 -4 -5 -1
-9 6 -9 7 0 10 -3 6 -6 -3 -3 -2 -11 4 -18 25 -30 57 -85 51 -90 -3 -3 0 -6 7
-6 7 0 9 -4 6 -10 -3 -5 -1 -10 5 -10 6 0 8 -4 5 -10 -3 -5 -3 -10 2 -10 4 0
16 -14 25 -30 9 -17 22 -30 28 -30 6 0 9 4 6 8 -3 5 4 19 15 30 11 12 17 22
14 22 -4 0 3 12 14 26 12 15 21 33 21 40 0 8 5 14 11 14 5 0 8 4 5 9 -3 4 3
16 14 26 11 10 17 21 14 26 -2 5 4 17 16 29 11 11 20 21 19 23 -3 7 26 57 33
57 5 0 6 5 3 10 -3 6 -1 10 5 10 6 0 9 4 5 9 -3 6 3 14 12 20 10 6 14 11 10
11 -10 0 34 80 43 80 4 0 7 6 7 13 0 6 4 20 8 30 7 16 -11 17 -284 17 -282 0
-291 -1 -282 -19z"/>
<path d="M1610 2336 c0 -7 9 -25 20 -39 11 -14 20 -28 20 -31 0 -12 242 -426
249 -426 8 0 284 474 289 496 3 12 -48 14 -287 14 -239 0 -291 -2 -291 -14z"/>
<path d="M917 2310 c-9 -11 -15 -20 -12 -20 7 0 -97 -174 -109 -182 -6 -4 -8
-8 -4 -8 4 0 -24 -54 -63 -121 -39 -66 -73 -127 -76 -135 -4 -12 40 -14 286
-14 312 0 310 0 271 50 -11 14 -20 31 -20 38 0 6 -4 12 -10 12 -5 0 -10 7 -10
15 0 8 -5 15 -11 15 -5 0 -8 4 -4 10 3 5 -3 18 -15 30 -11 11 -20 21 -20 23
-3 20 -14 47 -21 47 -5 0 -9 6 -9 14 0 7 -7 19 -15 26 -8 6 -14 15 -13 18 3
12 -25 62 -34 62 -5 0 -6 5 -3 10 3 6 -1 13 -9 16 -9 3 -13 10 -11 15 3 4 -3
17 -15 29 -11 11 -20 23 -20 28 0 20 -13 42 -23 42 -7 0 -20 -9 -30 -20z"/>
<path d="M1556 2308 c-9 -12 -16 -27 -16 -32 0 -5 -7 -17 -16 -27 -8 -9 -16
-23 -18 -31 -1 -7 -12 -28 -24 -45 -12 -17 -22 -36 -22 -42 0 -6 -4 -11 -10
-11 -5 0 -10 -6 -10 -12 0 -7 -13 -33 -29 -57 -17 -25 -28 -48 -26 -52 3 -4
-2 -10 -11 -13 -8 -3 -12 -10 -9 -16 3 -5 1 -10 -4 -10 -6 0 -11 -6 -11 -14 0
-8 -7 -21 -15 -29 -8 -8 -16 -21 -17 -28 -2 -7 -11 -22 -20 -33 -38 -42 -16
-46 283 -46 153 0 280 4 283 8 4 6 -101 199 -164 302 -5 8 -34 59 -65 113 -31
53 -58 97 -60 97 -2 0 -11 -10 -19 -22z"/>
<path d="M1303 1772 c10 -10 14 -22 10 -25 -3 -4 -1 -7 6 -7 7 0 9 -4 6 -10
-3 -5 -2 -10 3 -10 6 0 15 -12 21 -27 6 -16 20 -41 31 -58 10 -16 27 -46 37
-65 9 -19 24 -40 33 -47 8 -7 12 -13 8 -13 -4 0 6 -21 22 -47 17 -26 30 -51
30 -55 0 -5 5 -14 10 -21 6 -7 24 -34 41 -61 16 -26 32 -47 34 -45 10 11 285
492 285 500 0 5 -127 9 -297 9 -286 0 -296 -1 -280 -18z"/>
<path d="M1252 1750 c-12 -13 -19 -26 -17 -30 3 -5 -2 -11 -11 -14 -8 -3 -12
-10 -9 -16 3 -5 3 -10 -2 -10 -4 0 -14 -13 -21 -30 -7 -16 -24 -45 -37 -64
-13 -19 -21 -37 -17 -40 3 -3 -1 -6 -8 -6 -7 0 -11 -3 -7 -6 3 -4 -6 -25 -22
-48 -15 -22 -42 -68 -60 -101 -18 -32 -41 -71 -51 -85 -10 -14 -16 -30 -12
-36 4 -6 118 -9 292 -9 266 0 285 2 282 18 -3 17 -40 86 -52 97 -3 3 -21 35
-40 72 -19 38 -39 68 -43 68 -5 0 -5 5 -2 10 3 6 3 10 -2 10 -4 0 -19 23 -32
50 -14 28 -29 50 -34 50 -4 0 -5 5 -2 10 3 6 1 10 -4 10 -6 0 -11 6 -11 14 0
8 -7 21 -15 30 -9 8 -16 19 -16 23 -1 4 -7 19 -13 32 l-13 24 -21 -23z"/>
<path d="M990 1223 c0 -6 6 -18 13 -25 12 -14 35 -54 65 -113 9 -16 20 -33 26
-37 6 -4 8 -8 4 -8 -7 0 28 -59 51 -86 6 -7 7 -15 4 -18 -4 -3 -1 -6 5 -6 7 0
11 -3 10 -7 -3 -10 53 -107 64 -111 5 -2 6 -7 3 -12 -2 -4 4 -18 15 -30 11
-13 20 -27 20 -32 0 -4 7 -8 16 -8 8 0 12 5 9 10 -3 6 -2 10 3 10 5 0 17 18
27 40 10 22 21 40 26 40 4 0 10 13 14 30 4 16 10 30 14 30 7 0 23 28 31 55 2
6 10 16 17 23 7 7 13 19 13 27 0 7 4 15 8 17 10 3 122 202 122 215 0 4 -130 8
-290 8 -217 0 -290 -3 -290 -12z"/>
<path d="M811 966 c-78 -134 -141 -249 -141 -255 0 -8 78 -11 287 -9 264 3
286 4 289 21 1 9 -2 17 -7 17 -5 0 -9 7 -9 15 0 8 -4 15 -10 15 -5 0 -10 6
-10 14 0 7 -7 19 -15 26 -8 7 -13 16 -10 20 2 4 -5 17 -16 28 -11 12 -17 22
-14 22 7 0 -57 104 -67 108 -5 2 -6 8 -2 13 3 5 0 9 -7 9 -7 0 -9 3 -6 7 4 3
2 12 -4 20 -13 15 -37 56 -70 120 -12 23 -28 44 -35 47 -8 3 -62 -80 -153
-238z"/>
<path d="M680 675 c0 -7 54 -109 61 -115 6 -6 36 -56 71 -120 60 -107 142
-246 155 -260 12 -13 15 -13 23 0 5 8 7 17 4 21 -2 4 3 10 12 13 9 4 14 9 11
12 -3 4 5 22 20 40 14 19 21 34 17 34 -5 0 -4 4 2 8 6 4 19 23 29 42 9 19 24
43 33 53 8 9 12 17 8 17 -4 0 0 7 8 16 9 8 14 19 11 24 -3 4 2 11 11 14 9 4
14 9 11 12 -3 4 1 13 9 21 8 8 12 18 9 23 -3 4 2 11 11 14 8 3 12 10 9 16 -3
5 -2 10 3 10 9 0 47 70 44 83 -1 4 3 7 9 7 5 0 7 5 4 10 -6 10 -585 15 -585 5z"/>
<path d="M1322 663 c-9 -3 -6 -13 10 -36 13 -18 23 -36 23 -40 0 -4 5 -11 10
-15 6 -4 11 -13 13 -20 1 -7 13 -31 27 -52 14 -22 25 -44 25 -50 0 -5 3 -10 8
-10 4 0 13 -15 21 -32 8 -18 17 -35 20 -38 9 -8 39 -62 52 -92 6 -16 15 -28
19 -28 5 0 14 -15 20 -34 16 -50 34 -62 57 -38 10 10 19 24 21 31 1 7 23 47
48 89 25 42 49 84 54 92 71 121 150 263 150 271 0 9 -554 12 -578 2z"/>
<path d="M559 508 c-45 -79 -108 -188 -141 -244 -32 -55 -58 -106 -58 -112 0
-9 73 -12 289 -12 273 0 290 1 286 18 -5 26 -270 485 -282 489 -6 2 -48 -60
-94 -139z"/>
<path d="M1235 565 c-22 -41 -44 -75 -48 -75 -5 0 -5 -4 -2 -10 3 -5 1 -10 -5
-10 -6 0 -9 -4 -6 -9 3 -5 -1 -12 -9 -15 -8 -3 -14 -9 -13 -13 3 -13 -24 -63
-34 -63 -5 0 -6 -4 -3 -10 3 -5 1 -10 -5 -10 -6 0 -8 -4 -5 -10 3 -5 1 -10 -5
-10 -6 0 -9 -4 -6 -8 3 -5 -3 -18 -14 -29 -10 -12 -16 -24 -13 -27 4 -3 1 -6
-5 -6 -7 0 -12 -7 -12 -15 0 -8 -5 -15 -12 -15 -6 0 -8 -3 -5 -6 4 -4 -2 -19
-12 -33 -45 -65 -61 -61 258 -61 158 0 290 2 293 5 6 7 -41 103 -59 123 -7 7
-20 30 -30 50 -9 20 -20 39 -23 42 -9 7 -24 43 -22 53 1 4 -3 7 -8 7 -6 0 -17
18 -26 40 -9 22 -20 40 -26 40 -5 0 -6 5 -3 10 3 6 2 10 -3 10 -8 0 -34 45
-36 61 -1 10 -48 69 -55 69 -3 0 -24 -34 -46 -75z"/>
<path d="M1795 423 c-66 -115 -118 -210 -117 -212 2 -2 0 -7 -5 -10 -13 -9
-43 -59 -43 -71 0 -7 98 -10 295 -10 162 0 295 2 295 4 0 12 -288 500 -296
503 -5 2 -64 -90 -129 -204z"/>
</g>
</svg>
