<svg version="1.0" xmlns="http://www.w3.org/2000/svg" width="933.333" height="933.333" viewBox="0 0 700 700"><path d="M63.8 15c2 3.6 4.1 7.5 4.7 8.7.5 1.3 1.3 2.3 1.8 2.3.4 0 .7.4.7.9 0 .4 2.2 4.6 5 9.2 2.7 4.6 5.5 9.5 6 10.9.6 1.3 1.4 2.7 1.8 3 .4.3 1.5 2.1 2.6 4 3.8 7.2 7.9 14.6 9.6 17 1.4 2.2 5.2 8.6 12.9 22.2 3.8 6.7 5.8 10.2 9 15.6 1.7 2.9 3.1 5.7 3.1 6.2 0 .6.5 1 1 1 .6 0 1 .6 1 1.4 0 .7.9 2.5 2.1 4 1.1 1.4 1.7 2.6 1.2 2.6-.4 0-.3.4.3.8.5.4 3.9 5.8 7.5 12 3.5 6.2 7.7 13.4 9.2 16 1.5 2.6 3 5.4 3.4 6.2.3.8 1.3 2.3 2.1 3.3 1.5 1.6 1.8 1.3 5.4-5 2.1-3.8 4.3-7.5 4.8-8.3 1.4-2.3 9.8-16.8 13.1-22.6 3.4-6.2 27.5-47.7 30-51.9 1.1-1.7 2.2-3.7 2.6-4.5.4-.8 3.4-6.2 6.8-12s9.9-17 14.5-25 9.6-16.6 11.1-19.3c2.5-4.1 2.7-4.7 1.1-4.8-.9-.1-41.4-.2-89.9-.3l-88.2-.1 3.7 6.5zm197.3-6.2c-.6.2 1 3.7 3.5 7.8 2.4 4.2 4.4 8 4.4 8.5s.5.9 1 .9c.6 0 1 .4 1 .9s3.2 6.4 7.1 13.2c4 6.8 9 15.5 11.2 19.4 2.2 3.8 4.8 8.2 5.8 9.7 1.1 1.5 1.9 2.9 1.9 3.2 0 .3 3.6 6.6 8 14.2 4.4 7.5 8 13.7 8 13.9 0 .2 1.8 3.3 4 6.9 2.2 3.6 4 7 4 7.6 0 .5.5 1 1 1 .6 0 1 .4 1 1 0 .5 2.1 4.4 4.6 8.7 2.5 4.3 6.2 10.7 8.2 14.3 1.9 3.6 4.1 7.2 4.8 8.1.8.8 1.4 1.8 1.4 2.1 0 .3 1.8 3.6 3.9 7.2l3.9 6.7 2.1-3c1.2-1.6 2.1-3.4 2.1-4 0-.6.3-1.1.8-1.1.4 0 1.2-1 1.8-2.3 1.8-3.8 7.6-14.1 9.5-16.9 1.1-1.4 1.9-2.8 1.9-3.1 0-.5 15.2-27 17-29.7.6-.8 1.3-2.2 1.7-3 .4-.8 3.1-5.5 6-10.4s5.3-9 5.3-9.3c0-.2 1.6-2.9 3.5-5.9 1.9-3 3.5-5.6 3.5-5.9 0-.2 1.4-2.8 3.1-5.7 1.8-2.9 3.9-6.7 4.9-8.3.9-1.7 5.8-10.2 10.9-19 5.1-8.8 9.8-16.9 10.4-18 .6-1.1 1.9-3.2 2.9-4.7s1.8-3.3 1.8-4c0-1.1-16.9-1.3-88.5-1.3-48.7 0-88.9.1-89.4.3zm200.7 0c-1.3.3-.8 1.8 2.8 7.8 2.4 4.1 4.4 7.9 4.4 8.4 0 .6.5 1 1 1 .6 0 1 .4 1 1 0 .5 1.8 3.9 4 7.5s4 6.7 4 7c0 .2 2.5 4.5 5.5 9.5s5.5 9.2 5.5 9.4c0 .2 3 5.5 6.6 11.7 7.8 13.5 41.2 71.5 42.8 74.4.6 1.1 1.6 2.7 2.2 3.5.6.8 2.2 3.5 3.5 6 4.7 8.9 4.7 8.9 9.5.8 2.4-4 4.9-8.4 5.6-9.8.7-1.4 3.9-6.9 7-12.3 3.2-5.4 5.8-10.2 5.8-10.6 0-.4.5-1.2 1.2-1.9 1.1-1.1 5.3-8.2 9.6-16.2 1-1.9 4-7 6.5-11.3 2.6-4.3 4.7-8.1 4.7-8.4 0-.3.8-1.7 1.9-3.1 1-1.5 2.9-4.7 4.3-7.2s5.1-9 8.3-14.5c3.2-5.5 6.6-11.5 7.7-13.3 1-1.7 2.8-4.9 3.9-7 1.2-2 3.3-5.7 4.7-8.2 1.3-2.5 2.8-5 3.2-5.5.9-1.2 4.8-7.9 6.7-11.7.8-1.5 1.8-3 2.4-3.3.5-.4.9-1.4.9-2.3 0-1.6-6-1.7-87.8-1.7-48.3 0-88.6.1-89.4.3zm-212.8 6c0 .7-1.5 3.6-3.3 6.5-2.9 4.5-9 15-13.7 23.5-.8 1.5-2.6 4.5-3.9 6.7-1.3 2.2-3.3 5.6-4.4 7.5-7.2 12.9-48.8 84.8-52.3 90.7-2.4 4-4.4 7.5-4.4 7.8 0 .2-1.6 2.9-3.5 6-3 4.7-3.3 5.5-1.8 5.6 4.7.4 176 .5 177 .1.7-.2-.6-3.3-3.4-8-4.2-7.1-5.6-9.5-9.5-16.3-.7-1.3-1.5-2.6-1.9-2.9-.3-.3-1.3-2.1-2.3-4-2.2-4.3-4.3-8-13.6-24-4-6.8-8.1-13.8-9-15.5-3.1-5.5-8-14-8.9-15.5-.9-1.4-15.1-26-19.6-34-1.1-1.9-4-6.9-6.5-11-2.4-4.1-5.1-8.9-6-10.5-5.7-10.6-9-15.3-9-12.7zm199.8 1.3c-.8 1.3-3.4 5.5-5.6 9.2-2.3 3.8-4.2 7-4.2 7.2 0 .3-1.8 3.4-4 7s-4 7-4 7.5c0 .6-.4 1-1 1-.5 0-1 .6-1 1.3 0 .7-1.1 2.9-2.5 5-1.4 2-2.3 3.7-1.9 3.7.4 0 0 .8-.8 1.7-.8 1-4.4 6.7-7.8 12.8-3.5 6-7.1 12.3-8.1 14-1 1.6-2.7 4.6-3.7 6.5-1 1.9-5.5 9.7-10 17.4-4.5 7.6-8.2 14-8.2 14.2 0 .1-2.4 4.2-5.3 9.1-3 4.8-6.7 11.3-8.4 14.3-3.9 7.2-6.5 11.7-9.1 16-1.2 1.9-2.2 4-2.2 4.5 0 .7 30.3 1 89.4 1h89.5l-3.6-6.5c-2-3.6-5.4-9.4-7.5-12.9-2.1-3.4-3.8-6.5-3.8-6.7 0-.2-2-3.7-4.3-7.7-2.4-3.9-7.9-13.3-12.2-20.7-4.3-7.4-10.3-17.8-13.4-23-3-5.2-5.6-9.7-5.6-10 0-.3-.8-1.6-1.7-3-3.5-5.5-8.8-15.2-8.8-16.1 0-.5-.4-.9-1-.9-.5 0-1-.4-1-.8 0-.7-5-9.6-12.3-22-1.5-2.6-3.2-5.6-3.8-6.7-.5-1.1-3.2-5.8-5.8-10.4-4.8-8.3-4.9-8.3-6.3-6zm-86.5 165.7c-1.9.3-.7 2.7 12.4 25.5 8 13.9 18.7 32.4 23.8 41.2 5.1 8.8 10.6 18.4 12.4 21.3 1.7 2.9 3.1 5.7 3.1 6.2 0 .6.5 1 1 1 .6 0 1 .5 1 1.1 0 .6 2.5 5.3 5.6 10.5 3 5.1 5.5 9.6 5.4 10-.1.4.2 1 .7 1.3.5.3 5.6 8.8 11.4 18.8 5.7 10.1 10.7 18.3 11 18.3.3 0 1.3-1.5 2.2-3.3.9-1.7 2.1-3.9 2.7-4.7 1.4-2 13.6-23.2 17.3-30 1.7-3 3.8-6.6 4.7-8 .9-1.4 3-5 4.7-8 1.7-3 6.3-11.1 10.3-18 4-6.9 8.6-15 10.3-18 1.7-3 3.5-5.7 3.9-5.8.4-.2.8-.8.8-1.2 0-.7 8.5-15.9 16.1-28.8.9-1.5 2.7-4.7 4.1-7.2 1.4-2.5 4.8-8.4 7.6-13.3 2.8-4.8 4.8-8.7 4.4-8.8-2.9-.2-175.2-.3-176.9-.1zm-16.7 12.4c-2.2 4-4.5 8.3-5 9.5-.6 1.3-1.4 2.3-1.8 2.3-.5 0-.8.5-.8 1 0 .6-1.1 2.7-2.3 4.8-1.3 2-3.5 5.8-4.9 8.3-4.6 8.2-5.3 9.4-5.9 9.9-.3.3-1.5 2.4-2.6 4.7-2.9 5.5-4.7 8.7-5.3 9.3-.3.3-1.1 1.6-1.8 3s-1.8 3.4-2.5 4.5-2.7 4.7-4.6 8c-1.9 3.3-7.4 12.7-12.2 21-4.8 8.2-9.6 16.6-10.7 18.5-1.1 1.9-7 12.1-13.1 22.7S261 341.3 261 341.8s38.1.9 89 .9c57.6 0 89-.4 89-1 0-.5-1.3-3.2-3-5.9-1.6-2.6-3-5-3-5.2 0-.2-1.8-3.4-4-7s-4-6.9-4-7.3c0-.3-.6-1.4-1.4-2.2-.7-.9-2.7-4.1-4.3-7.1-1.6-3-6-10.6-9.6-16.9-3.7-6.2-6.7-11.8-6.7-12.2 0-.5-.5-.9-1.1-.9-.5 0-.8-.4-.4-.9.3-.5.1-1.2-.4-1.5-.5-.3-3.5-5.2-6.7-10.8-3.1-5.7-6.4-11.1-7.2-12.1-.8-.9-1.2-1.7-.8-1.7.4 0-.1-1.2-1.2-2.8-1.6-2.3-5.2-8.4-15.5-26.2-1.1-1.9-2.8-4.9-3.8-6.5-1.1-1.7-2.2-3.7-2.6-4.5-.9-2.1-13.3-23-13.6-23-.1 0-2 3.3-4.1 7.2zM261 355.9c0 .5 3.8 7.5 8.5 15.6 4.7 8 9.6 16.5 10.9 18.8 5.9 10.5 14 24.4 15.4 26.7.9 1.4 1.5 2.8 1.4 3.2-.1.5.2.8.8.8.5 0 1 .5 1 1 0 .6 1.2 2.9 2.6 5.2 1.4 2.3 3.6 6 4.9 8.2 2.1 3.9 6.2 11 10.6 18.6 1.9 3.2 14.1 24.3 20.3 35 1.4 2.5 4.7 8.2 7.3 12.7 2.5 4.6 5 8.3 5.4 8.3.4 0 1.4-1.2 2.2-2.8.8-1.5 3.9-7.1 7.1-12.6 3.1-5.4 5.6-10.2 5.6-10.6 0-.5.3-1 .8-1.2.4-.2 4.3-6.6 8.7-14.3 4.3-7.7 8.2-14.2 8.5-14.5.3-.3 1.5-2.3 2.7-4.5 3-5.7 5.3-9.8 11.3-20 2.9-5 6.4-11 7.8-13.5 1.4-2.5 3.2-5.7 4.1-7.2 11-18.8 16.1-28 16.1-28.7 0-.5.4-1.1.8-1.3.4-.2 3-4.1 5.6-8.8 2.7-4.7 5.7-10 6.8-11.8l2-3.2h-89.6c-53.4 0-89.6.4-89.6.9zm-22 23.2c-5.8 10-11.6 20-12.9 22.3-2.1 3.7-26.1 45.3-30.8 53.3-12.6 21.8-19.3 33.7-19.3 34.4 0 .5-.4.9-1 .9-.5 0-1 .4-1 .9s-2.9 5.9-6.5 12c-3.6 6-6.5 11.4-6.5 12 0 .6 4.8 1 12.8 1 7 0 13.2 0 13.7.1.6.1 1.5.2 2 .1 1.3-.2 44.9-.2 46.1 0 .5.1 1.4.1 1.9 0 1.3-.2 44.9-.2 46.1 0 .5.1 1.4.1 1.9 0 2.7-.5 45.7-.1 46.5.4.5.3 1.1.1 1.4-.3.3-.5 1.7-.7 3.1-.4 3.1.6 3.3-1.2.4-5.3-1.1-1.7-2.5-3.9-3-5s-1.5-2.9-2.2-4c-.7-1.1-2.5-4.3-4.1-7-1.6-2.8-5.4-9.3-8.5-14.5-3-5.2-5.6-9.7-5.6-10 0-.3-.8-1.6-1.7-3-1.5-2.4-10.3-17.6-15.6-27-1.4-2.5-3.5-6.1-4.7-8-1.2-1.9-2.4-4.2-2.8-5-.4-.8-1.8-3.3-3.2-5.5-1.3-2.2-2.9-4.9-3.5-6-1.1-2.1-2-3.6-11.3-19.7-3.2-5.3-5.7-10.2-5.7-10.7 0-.6-.4-1.1-1-1.1-.5 0-1-.7-1-1.5s-.4-1.5-1-1.5c-.5 0-1-.5-1-1.1 0-.6-1.7-3.9-3.7-7.3-2.1-3.3-3.8-6.3-3.8-6.6-.1-.9-3-5-3.5-5-.3 0-5.3 8.2-11 18.1zm-78 150.2c0 .5 2.3 4.7 5 9.4 2.8 4.7 5 8.6 5 8.8 0 .2 1.4 2.4 3 4.8 1.7 2.5 3 4.7 3 5 0 .3 2 4 4.5 8.1 2.5 4.2 4.5 7.8 4.5 8.1 0 .2 1.8 3.4 4.1 7.2 2.2 3.7 4.5 7.5 4.9 8.3.5.8 2.9 5 5.4 9.2 2.5 4.3 4.6 8.2 4.6 8.8 0 .5.5 1 1 1 .6 0 1 .4 1 1 0 .5 2.7 5.5 6 11s6 10.5 6 11c0 .6.5 1 1 1 .6 0 1 .5 1 1 0 .9 19.4 35 23.9 42 .8 1.4 1.6 2.8 1.6 3.2 0 .4.6 1.3 1.3 2 .6.6 1.2 1.8 1.2 2.6 0 2.3 1.7.4 5.3-6.1 1.9-3.4 7.4-13 12.2-21.2l10.7-18.5c21.3-37.1 31.4-54.6 32.1-54.8.4-.2.7-.7.7-1.2 0-.4 3.2-6.3 7-12.9 3.9-6.7 7-12.6 7-13.1 0-.4.3-1 .8-1.2.4-.2 2.9-4.1 5.6-8.8 2.7-4.7 5.9-10.3 7.2-12.6l2.4-4h-89.5c-54.5-.1-89.5.3-89.5.9zm201.1 2.6c1.2 2 3.5 6.1 5.2 9.1 1.7 3 3.8 6.7 4.8 8.1 1 1.5 2.3 3.7 2.9 5 .6 1.3 2.1 4 3.3 6.1 1.2 2 5.1 8.7 8.7 15 3.5 6.2 6.8 11.4 7.2 11.6.4.2.8.7.8 1.2 0 .7 15.2 27.5 24.9 43.8 1.7 2.9 3.1 5.4 3.1 5.6 0 .2 3.2 5.6 7 12 3.9 6.5 7 11.9 7 12.1 0 .3 1.7 3.3 3.9 6.8 2.1 3.5 5 8.5 6.4 11.1l2.5 4.8 4.3-7.4c2.3-4 4.9-8.1 5.7-9.1.8-.9 1.2-1.7.8-1.7-.4 0 .7-2 2.3-4.4 1.7-2.5 3.5-5.5 4.1-6.8.5-1.3 1.4-3 2-3.8 3-4.4 17-29.2 17-30 0-.6.4-1 .9-1s1.1-.8 1.5-1.8c.9-2.6 7.9-14.9 9.4-16.4.6-.6 1.2-1.5 1.2-1.9 0-.4 8.8-15.9 19.6-34.5 10.8-18.7 20-34.6 20.4-35.5.8-1.4-7.8-1.5-89.1-1.5l-89.9-.1 2.1 3.6zm-214.2 4.8c-.7 1.6-2.8 5.2-4.6 8.1-1.8 2.9-3.3 5.4-3.3 5.6 0 .2-3.6 6.5-8 14-4.4 7.6-8 14.1-8 14.6 0 .4-.3 1-.7 1.2-.5.1-1.7 2-2.8 4-1.5 2.9-23.3 40.6-30 52-.5.9-2.3 4.1-3.9 7-1.5 2.9-3.4 6-4.2 6.9-.8.8-1.4 1.8-1.4 2.1 0 .4-2.7 5.2-6 10.8-3.3 5.6-6 10.3-6 10.5 0 .1-2 3.6-4.4 7.6-2.5 4.1-4.3 7.5-4.2 7.7.4.4 178.8.4 179.1 0 .1-.2-2-4.1-4.7-8.8-2.7-4.7-6-10.3-7.3-12.5-1.2-2.2-4.6-8.1-7.5-13-2.9-5-6.2-10.6-7.2-12.5-1-1.9-2.3-4.2-2.8-5-.6-.8-7.1-12.1-14.5-25s-14-24.2-14.5-25c-.6-.8-1.3-2.2-1.7-3-.4-.8-2.2-3.8-4-6.7-1.8-2.9-3.3-5.4-3.3-5.7 0-.3-4.2-7.7-9.2-16.3-5.1-8.7-9.9-17.1-10.7-18.6-1.8-3.4-2.4-3.4-4.2 0zM337 555.6c-6.9 11.9-12.6 22.3-12.8 23-.2.8-.8 1.4-1.3 1.4s-.9.4-.9.9-2.2 4.7-4.8 9.3c-2.7 4.6-5.5 9.4-6.3 10.8-.8 1.4-1.8 2.8-2.4 3.2-.5.4-.6.8-.2.8.5 0 0 1.2-1.1 2.7-1.1 1.6-2.9 4.5-4 6.5-1.2 2-8 13.9-15.1 26.3-7.2 12.5-13.1 23-13.1 23.5s-.4 1-.8 1.2c-.5.1-2.2 2.8-3.9 5.8-1.6 3-4.6 8.3-6.6 11.7l-3.6 6.3h19.2c71.5.2 160 0 160.2-.2.1-.2-2-4.1-4.7-8.8-2.7-4.7-6-10.3-7.2-12.5-3.7-6.5-6-10.5-11.6-20-2.9-5-6.4-11-7.8-13.5-1.4-2.5-7.2-12.5-12.9-22.2-5.7-9.8-10.3-18-10.3-18.4 0-.3-1.3-2.5-3-4.9-1.6-2.4-3-4.6-3-4.9 0-.3-1.6-3-3.5-6s-3.5-5.7-3.5-5.9c0-.3-2.9-5.4-6.4-11.5-3.6-6.1-7.6-13.1-8.9-15.4-5.1-8.9-6.2-10.8-6.7-10.8-.3 0-6.1 9.7-13 21.6zm208.4-14.3c-2.3 3.9-8.1 13.9-12.8 22.1-4.7 8.2-8.6 15.2-8.6 15.6 0 .5-.3 1-.7 1.2-.5.1-1.7 2-2.8 4-1.9 3.6-12.8 22.3-15.2 26.3-.7 1.1-1.6 2.7-2 3.5-.7 1.5-11.5 20.3-13.3 23-.5.8-2.1 3.7-3.6 6.5-1.4 2.7-3.2 5.7-4 6.6-.8.8-1.4 1.8-1.4 2.2 0 .4-2 4.1-4.5 8.3-2.5 4.1-4.5 7.7-4.5 7.9 0 .2-2.7 4.8-5.9 10.2-3.3 5.3-5.8 9.9-5.7 10.1.4.3 178.8.4 179.1 0 .1-.2-1.9-3.9-4.4-8.3-12.2-20.8-24.7-42.5-27.4-47.5-1.6-3-3.6-6.2-4.3-7.1-.8-.8-1.4-1.8-1.4-2.1 0-.4-3.9-7.3-8.6-15.5-4.8-8.1-9.7-16.6-10.9-18.8-1.3-2.2-4-7-6.1-10.7-2.2-3.6-8.8-15.2-14.9-25.7-6-10.5-11.2-19.1-11.5-19.1-.3 0-2.4 3.3-4.6 7.3z"/></svg>