<svg xmlns="http://www.w3.org/2000/svg" version="1.0" viewBox="0 0 250 250"><path d="M33.3 13.7c.2.5 6.8 11.9 14.6 25.5C60.5 61 64 66.3 64 63.2c0-.8 2.3-4.8 17-29.7 2.9-5 5.3-9.6 5.3-10.3 0-.6.3-1.2.7-1.2.6 0 5-7.3 5-8.4 0-.3-13.3-.6-29.6-.6-16.2 0-29.3.3-29.1.7zM97.9 15.9c.6 1 .7 2.1.4 2.5-.3.3-.1.6.5.6s1.9 1.7 2.9 3.7c.9 2.1 2.3 4.4 3 5.1.7.8 1.1 1.8.8 2.3-.4.5-.1.9.4.9.6 0 1.1.7 1.1 1.5s.4 1.5.9 1.5c.8 0 2.3 4.1 1.8 4.8-.1.2.6.8 1.6 1.3.9.6 1.5 1.4 1.2 2-.4.5-.1.9.6.9s1 .3.6.6c-.3.3-.2 1.1.4 1.8 2.5 3 5.7 8.5 5.1 9-.3.3 0 .6.7.6s.9.4.6 1c-.3.5-.1 1 .5 1s.8.4.5 1c-.3.5-.3 1 .2 1 .4 0 1.6 1.4 2.5 3 .9 1.7 2.2 3 2.8 3 .6 0 .9-.4.6-.8-.3-.5.4-1.9 1.5-3 1.1-1.2 1.7-2.2 1.4-2.2-.4 0 .3-1.2 1.4-2.6 1.2-1.5 2.1-3.3 2.1-4 0-.8.5-1.4 1.1-1.4.5 0 .8-.4.5-.9-.3-.4.3-1.6 1.4-2.6 1.1-1 1.7-2.1 1.4-2.6-.2-.5.4-1.7 1.6-2.9 1.1-1.1 2-2.1 1.9-2.3-.3-.7 2.6-5.7 3.3-5.7.5 0 .6-.5.3-1-.3-.6-.1-1 .5-1s.9-.4.5-.9c-.3-.6.3-1.4 1.2-2 1-.6 1.4-1.1 1-1.1-1 0 3.4-8 4.3-8 .4 0 .7-.6.7-1.3 0-.6.4-2 .8-3 .7-1.6-1.1-1.7-28.4-1.7-28.2 0-29.1.1-28.2 1.9zM161 16.4c0 .7.9 2.5 2 3.9s2 2.8 2 3.1c0 1.2 24.2 42.6 24.9 42.6.8 0 28.4-47.4 28.9-49.6.3-1.2-4.8-1.4-28.7-1.4s-29.1.2-29.1 1.4zM91.7 19c-.9 1.1-1.5 2-1.2 2 .7 0-9.7 17.4-10.9 18.2-.6.4-.8.8-.4.8s-2.4 5.4-6.3 12.1c-3.9 6.6-7.3 12.7-7.6 13.5-.4 1.2 4 1.4 28.6 1.4 31.2 0 31 0 27.1-5-1.1-1.4-2-3.1-2-3.8 0-.6-.4-1.2-1-1.2-.5 0-1-.7-1-1.5s-.5-1.5-1.1-1.5c-.5 0-.8-.4-.4-1 .3-.5-.3-1.8-1.5-3-1.1-1.1-2-2.1-2-2.3-.3-2-1.4-4.7-2.1-4.7-.5 0-.9-.6-.9-1.4 0-.7-.7-1.9-1.5-2.6-.8-.6-1.4-1.5-1.3-1.8.3-1.2-2.5-6.2-3.4-6.2-.5 0-.6-.5-.3-1 .3-.6-.1-1.3-.9-1.6-.9-.3-1.3-1-1.1-1.5.3-.4-.3-1.7-1.5-2.9-1.1-1.1-2-2.3-2-2.8 0-2-1.3-4.2-2.3-4.2-.7 0-2 .9-3 2zM155.6 19.2c-.9 1.2-1.6 2.7-1.6 3.2s-.7 1.7-1.6 2.7c-.8.9-1.6 2.3-1.8 3.1-.1.7-1.2 2.8-2.4 4.5-1.2 1.7-2.2 3.6-2.2 4.2 0 .6-.4 1.1-1 1.1-.5 0-1 .6-1 1.2 0 .7-1.3 3.3-2.9 5.7-1.7 2.5-2.8 4.8-2.6 5.2.3.4-.2 1-1.1 1.3-.8.3-1.2 1-.9 1.6.3.5.1 1-.4 1-.6 0-1.1.6-1.1 1.4 0 .8-.7 2.1-1.5 2.9-.8.8-1.6 2.1-1.7 2.8-.2.7-1.1 2.2-2 3.3-3.8 4.2-1.6 4.6 28.3 4.6 15.3 0 28-.4 28.3-.8.4-.6-10.1-19.9-16.4-30.2-.5-.8-3.4-5.9-6.5-11.3-3.1-5.3-5.8-9.7-6-9.7-.2 0-1.1 1-1.9 2.2zM130.3 72.8c1 1 1.4 2.2 1 2.5-.3.4-.1.7.6.7s.9.4.6 1c-.3.5-.2 1 .3 1 .6 0 1.5 1.2 2.1 2.7.6 1.6 2 4.1 3.1 5.8 1 1.6 2.7 4.6 3.7 6.5.9 1.9 2.4 4 3.3 4.7.8.7 1.2 1.3.8 1.3-.4 0 .6 2.1 2.2 4.7 1.7 2.6 3 5.1 3 5.5 0 .5.5 1.4 1 2.1.6.7 2.4 3.4 4.1 6.1 1.6 2.6 3.2 4.7 3.4 4.5 1-1.1 28.5-49.2 28.5-50 0-.5-12.7-.9-29.7-.9-28.6 0-29.6.1-28 1.8zM125.2 75c-1.2 1.3-1.9 2.6-1.7 3 .3.5-.2 1.1-1.1 1.4-.8.3-1.2 1-.9 1.6.3.5.3 1-.2 1-.4 0-1.4 1.3-2.1 3-.7 1.6-2.4 4.5-3.7 6.4-1.3 1.9-2.1 3.7-1.7 4 .3.3-.1.6-.8.6-.7 0-1.1.3-.7.6.3.4-.6 2.5-2.2 4.8-1.5 2.2-4.2 6.8-6 10.1-1.8 3.2-4.1 7.1-5.1 8.5-1 1.4-1.6 3-1.2 3.6.4.6 11.8.9 29.2.9 26.6 0 28.5-.2 28.2-1.8-.3-1.7-4-8.6-5.2-9.7-.3-.3-2.1-3.5-4-7.2-1.9-3.8-3.9-6.8-4.3-6.8-.5 0-.5-.5-.2-1 .3-.6.3-1-.2-1-.4 0-1.9-2.3-3.2-5-1.4-2.8-2.9-5-3.4-5-.4 0-.5-.5-.2-1 .3-.6.1-1-.4-1-.6 0-1.1-.6-1.1-1.4 0-.8-.7-2.1-1.5-3-.9-.8-1.6-1.9-1.6-2.3-.1-.4-.7-1.9-1.3-3.2l-1.3-2.4-2.1 2.3zM99 127.7c0 .6.6 1.8 1.3 2.5 1.2 1.4 3.5 5.4 6.5 11.3.9 1.6 2 3.3 2.6 3.7.6.4.8.8.4.8-.7 0 2.8 5.9 5.1 8.6.6.7.7 1.5.4 1.8-.4.3-.1.6.5.6.7 0 1.1.3 1 .7-.3 1 5.3 10.7 6.4 11.1.5.2.6.7.3 1.2-.2.4.4 1.8 1.5 3 1.1 1.3 2 2.7 2 3.2 0 .4.7.8 1.6.8.8 0 1.2-.5.9-1-.3-.6-.2-1 .3-1s1.7-1.8 2.7-4c1-2.2 2.1-4 2.6-4 .4 0 1-1.3 1.4-3 .4-1.6 1-3 1.4-3 .7 0 2.3-2.8 3.1-5.5.2-.6 1-1.6 1.7-2.3.7-.7 1.3-1.9 1.3-2.7 0-.7.4-1.5.8-1.7 1-.3 12.2-20.2 12.2-21.5 0-.4-13-.8-29-.8-21.7 0-29 .3-29 1.2zM81.1 153.4C73.3 166.8 67 178.3 67 178.9c0 .8 7.8 1.1 28.7.9 26.4-.3 28.6-.4 28.9-2.1.1-.9-.2-1.7-.7-1.7-.5 0-.9-.7-.9-1.5s-.4-1.5-1-1.5c-.5 0-1-.6-1-1.4 0-.7-.7-1.9-1.5-2.6-.8-.7-1.3-1.6-1-2 .2-.4-.5-1.7-1.6-2.8-1.1-1.2-1.7-2.2-1.4-2.2.7 0-5.7-10.4-6.7-10.8-.5-.2-.6-.8-.2-1.3.3-.5 0-.9-.7-.9s-.9-.3-.6-.7c.4-.3.2-1.2-.4-2-1.3-1.5-3.7-5.6-7-12-1.2-2.3-2.8-4.4-3.5-4.7-.8-.3-6.2 8-15.3 23.8zM68 182.5c0 .7 5.4 10.9 6.1 11.5.6.6 3.6 5.6 7.1 12 6 10.7 14.2 24.6 15.5 26 1.2 1.3 1.5 1.3 2.3 0 .5-.8.7-1.7.4-2.1-.2-.4.3-1 1.2-1.3.9-.4 1.4-.9 1.1-1.2-.3-.4.5-2.2 2-4 1.4-1.9 2.1-3.4 1.7-3.4-.5 0-.4-.4.2-.8.6-.4 1.9-2.3 2.9-4.2.9-1.9 2.4-4.3 3.3-5.3.8-.9 1.2-1.7.8-1.7-.4 0 0-.7.8-1.6.9-.8 1.4-1.9 1.1-2.4-.3-.4.2-1.1 1.1-1.4.9-.4 1.4-.9 1.1-1.2-.3-.4.1-1.3.9-2.1s1.2-1.8.9-2.3c-.3-.4.2-1.1 1.1-1.4.8-.3 1.2-1 .9-1.6-.3-.5-.2-1 .3-1 .9 0 4.7-7 4.4-8.3-.1-.4.3-.7.9-.7.5 0 .7-.5.4-1-.6-1-58.5-1.5-58.5-.5zM132.2 183.7c-.9.3-.6 1.3 1 3.6 1.3 1.8 2.3 3.6 2.3 4 0 .4.5 1.1 1 1.5.6.4 1.1 1.3 1.3 2 .1.7 1.3 3.1 2.7 5.2 1.4 2.2 2.5 4.4 2.5 5 0 .5.3 1 .8 1 .4 0 1.3 1.5 2.1 3.2.8 1.8 1.7 3.5 2 3.8.9.8 3.9 6.2 5.2 9.2.6 1.6 1.5 2.8 1.9 2.8.5 0 1.4 1.5 2 3.4 1.6 5 3.4 6.2 5.7 3.8 1-1 1.9-2.4 2.1-3.1.1-.7 2.3-4.7 4.8-8.9s4.9-8.4 5.4-9.2c7.1-12.1 15-26.3 15-27.1 0-.9-55.4-1.2-57.8-.2zM55.9 199.2c-4.5 7.9-10.8 18.8-14.1 24.4-3.2 5.5-5.8 10.6-5.8 11.2 0 .9 7.3 1.2 28.9 1.2 27.3 0 29-.1 28.6-1.8-.5-2.6-27-48.5-28.2-48.9-.6-.2-4.8 6-9.4 13.9zM123.5 193.5c-2.2 4.1-4.4 7.5-4.8 7.5-.5 0-.5.4-.2 1 .3.5.1 1-.5 1s-.9.4-.6.9c.3.5-.1 1.2-.9 1.5-.8.3-1.4.9-1.3 1.3.3 1.3-2.4 6.3-3.4 6.3-.5 0-.6.4-.3 1 .3.5.1 1-.5 1s-.8.4-.5 1c.3.5.1 1-.5 1s-.9.4-.6.8c.3.5-.3 1.8-1.4 2.9-1 1.2-1.6 2.4-1.3 2.7.4.3.1.6-.5.6-.7 0-1.2.7-1.2 1.5s-.5 1.5-1.2 1.5c-.6 0-.8.3-.5.6.4.4-.2 1.9-1.2 3.3-4.5 6.5-6.1 6.1 25.8 6.1 15.8 0 29-.2 29.3-.5.6-.7-4.1-10.3-5.9-12.3-.7-.7-2-3-3-5-.9-2-2-3.9-2.3-4.2-.9-.7-2.4-4.3-2.2-5.3.1-.4-.3-.7-.8-.7-.6 0-1.7-1.8-2.6-4-.9-2.2-2-4-2.6-4-.5 0-.6-.5-.3-1 .3-.6.2-1-.3-1-.8 0-3.4-4.5-3.6-6.1-.1-1-4.8-6.9-5.5-6.9-.3 0-2.4 3.4-4.6 7.5zM179.5 207.7c-6.6 11.5-11.8 21-11.7 21.2.2.2 0 .7-.5 1-1.3.9-4.3 5.9-4.3 7.1 0 .7 9.8 1 29.5 1 16.2 0 29.5-.2 29.5-.4 0-1.2-28.8-50-29.6-50.3-.5-.2-6.4 9-12.9 20.4z"/></svg>