<?xml version="1.0" standalone="no"?>
<!DOCTYPE svg PUBLIC "-//W3C//DTD SVG 20010904//EN"
 "http://www.w3.org/TR/2001/REC-SVG-20010904/DTD/svg10.dtd">
<svg version="1.0" xmlns="http://www.w3.org/2000/svg"
 width="700.000000pt" height="700.000000pt" viewBox="0 0 700.000000 700.000000"
 preserveAspectRatio="xMidYMid meet">
<metadata>
Created by potrace 1.11, written by Peter Selinger 2001-2013
</metadata>
<g transform="translate(0.000000,700.000000) scale(0.100000,-0.100000)"
fill="#000000" stroke="none">
<path d="M638 6850 c20 -36 41 -75 47 -87 5 -13 13 -23 18 -23 4 0 7 -4 7 -9
0 -4 22 -46 50 -92 27 -46 55 -95 60 -109 6 -13 14 -27 18 -30 4 -3 15 -21 26
-40 38 -72 79 -146 96 -170 14 -22 52 -86 129 -222 38 -67 58 -102 90 -156 17
-29 31 -57 31 -62 0 -6 5 -10 10 -10 6 0 10 -6 10 -14 0 -7 9 -25 21 -40 11
-14 17 -26 12 -26 -4 0 -3 -4 3 -8 5 -4 39 -58 75 -120 35 -62 77 -134 92
-160 15 -26 30 -54 34 -62 3 -8 13 -23 21 -33 15 -16 18 -13 54 50 21 38 43
75 48 83 14 23 98 168 131 226 34 62 275 477 300 519 11 17 22 37 26 45 4 8
34 62 68 120 34 58 99 170 145 250 46 80 96 166 111 193 25 41 27 47 11 48 -9
1 -414 2 -899 3 l-882 1 37 -65z"/>
<path d="M2611 6912 c-6 -2 10 -37 35 -78 24 -42 44 -80 44 -85 0 -5 5 -9 10
-9 6 0 10 -4 10 -9 0 -5 32 -64 71 -132 40 -68 90 -155 112 -194 22 -38 48
-82 58 -97 11 -15 19 -29 19 -32 0 -3 36 -66 80 -142 44 -75 80 -137 80 -139
0 -2 18 -33 40 -69 22 -36 40 -70 40 -76 0 -5 5 -10 10 -10 6 0 10 -4 10 -10
0 -5 21 -44 46 -87 25 -43 62 -107 82 -143 19 -36 41 -72 48 -81 8 -8 14 -18
14 -21 0 -3 18 -36 39 -72 l39 -67 21 30 c12 16 21 34 21 40 0 6 3 11 8 11 4
0 12 10 18 23 18 38 76 141 95 169 11 14 19 28 19 31 0 5 152 270 170 297 6 8
13 22 17 30 4 8 31 55 60 104 29 49 53 90 53 93 0 2 16 29 35 59 19 30 35 56
35 59 0 2 14 28 31 57 18 29 39 67 49 83 9 17 58 102 109 190 51 88 98 169
104 180 6 11 19 32 29 47 10 15 18 33 18 40 0 11 -169 13 -885 13 -487 0 -889
-1 -894 -3z"/>
<path d="M4618 6912 c-13 -3 -8 -18 28 -78 24 -41 44 -79 44 -84 0 -6 5 -10
10 -10 6 0 10 -4 10 -10 0 -5 18 -39 40 -75 22 -36 40 -67 40 -70 0 -2 25 -45
55 -95 30 -50 55 -92 55 -94 0 -2 30 -55 66 -117 78 -135 412 -715 428 -744 6
-11 16 -27 22 -35 6 -8 22 -35 35 -60 47 -89 47 -89 95 -8 24 40 49 84 56 98
7 14 39 69 70 123 32 54 58 102 58 106 0 4 5 12 12 19 11 11 53 82 96 162 10
19 40 70 65 113 26 43 47 81 47 84 0 3 8 17 19 31 10 15 29 47 43 72 14 25 51
90 83 145 32 55 66 115 77 133 10 17 28 49 39 70 12 20 33 57 47 82 13 25 28
50 32 55 9 12 48 79 67 117 8 15 18 30 24 33 5 4 9 14 9 23 0 16 -60 17 -878
17 -483 0 -886 -1 -894 -3z"/>
<path d="M2490 6852 c0 -7 -15 -36 -33 -65 -29 -45 -90 -150 -137 -235 -8 -15
-26 -45 -39 -67 -13 -22 -33 -56 -44 -75 -72 -129 -488 -848 -523 -907 -24
-40 -44 -75 -44 -78 0 -2 -16 -29 -35 -60 -30 -47 -33 -55 -18 -56 47 -4 1760
-5 1770 -1 7 2 -6 33 -34 80 -42 71 -56 95 -95 163 -7 13 -15 26 -19 29 -3 3
-13 21 -23 40 -22 43 -43 80 -136 240 -40 68 -81 138 -90 155 -31 55 -80 140
-89 155 -9 14 -151 260 -196 340 -11 19 -40 69 -65 110 -24 41 -51 89 -60 105
-57 106 -90 153 -90 127z"/>
<path d="M4488 6839 c-8 -13 -34 -55 -56 -92 -23 -38 -42 -70 -42 -72 0 -3
-18 -34 -40 -70 -22 -36 -40 -70 -40 -75 0 -6 -4 -10 -10 -10 -5 0 -10 -6 -10
-13 0 -7 -11 -29 -25 -50 -14 -20 -23 -37 -19 -37 4 0 0 -8 -8 -17 -8 -10 -44
-67 -78 -128 -35 -60 -71 -123 -81 -140 -10 -16 -27 -46 -37 -65 -10 -19 -55
-97 -100 -174 -45 -76 -82 -140 -82 -142 0 -1 -24 -42 -53 -91 -30 -48 -67
-113 -84 -143 -39 -72 -65 -117 -91 -160 -12 -19 -22 -40 -22 -45 0 -7 303
-10 894 -10 l895 0 -36 65 c-20 36 -54 94 -75 129 -21 34 -38 65 -38 67 0 2
-20 37 -43 77 -24 39 -79 133 -122 207 -43 74 -103 178 -134 230 -30 52 -56
97 -56 100 0 3 -8 16 -17 30 -35 55 -88 152 -88 161 0 5 -4 9 -10 9 -5 0 -10
4 -10 8 0 7 -50 96 -123 220 -15 26 -32 56 -38 67 -5 11 -32 58 -58 104 -48
83 -49 83 -63 60z"/>
<path d="M3623 5182 c-19 -3 -7 -27 124 -255 80 -139 187 -324 238 -412 51
-88 106 -184 124 -213 17 -29 31 -57 31 -62 0 -6 5 -10 10 -10 6 0 10 -5 10
-11 0 -6 25 -53 56 -105 30 -51 55 -96 54 -100 -1 -4 2 -10 7 -13 5 -3 56 -88
114 -188 57 -101 107 -183 110 -183 3 0 13 15 22 33 9 17 21 39 27 47 14 20
136 232 173 300 17 30 38 66 47 80 9 14 30 50 47 80 17 30 63 111 103 180 40
69 86 150 103 180 17 30 35 57 39 58 4 2 8 8 8 12 0 7 85 159 161 288 9 15 27
47 41 72 14 25 48 84 76 133 28 48 48 87 44 88 -29 2 -1752 3 -1769 1z"/>
<path d="M3456 5058 c-22 -40 -45 -83 -50 -95 -6 -13 -14 -23 -18 -23 -5 0 -8
-5 -8 -10 0 -6 -11 -27 -23 -48 -13 -20 -35 -58 -49 -83 -46 -82 -53 -94 -59
-99 -3 -3 -15 -24 -26 -47 -29 -55 -47 -87 -53 -93 -3 -3 -11 -16 -18 -30 -7
-14 -18 -34 -25 -45 -7 -11 -27 -47 -46 -80 -19 -33 -74 -127 -122 -210 -48
-82 -96 -166 -107 -185 -11 -19 -70 -121 -131 -227 -61 -106 -111 -196 -111
-201 0 -5 381 -9 890 -9 576 0 890 4 890 10 0 5 -13 32 -30 59 -16 26 -30 50
-30 52 0 2 -18 34 -40 70 -22 36 -40 69 -40 73 0 3 -6 14 -14 22 -7 9 -27 41
-43 71 -16 30 -60 106 -96 169 -37 62 -67 118 -67 122 0 5 -5 9 -11 9 -5 0 -8
4 -4 9 3 5 1 12 -4 15 -5 3 -35 52 -67 108 -31 57 -64 111 -72 121 -8 9 -12
17 -8 17 4 0 -1 12 -12 28 -16 23 -52 84 -155 262 -11 19 -28 49 -38 65 -11
17 -22 37 -26 45 -9 21 -133 230 -136 230 -1 0 -20 -33 -41 -72z"/>
<path d="M2610 3441 c0 -5 38 -75 85 -156 47 -80 96 -165 109 -188 59 -105
140 -244 154 -267 9 -14 15 -28 14 -32 -1 -5 2 -8 8 -8 5 0 10 -5 10 -10 0 -6
12 -29 26 -52 14 -23 36 -60 49 -82 21 -39 62 -110 106 -186 19 -32 141 -243
203 -350 14 -25 47 -82 73 -127 25 -46 50 -83 54 -83 4 0 14 12 22 28 8 15 39
71 71 126 31 54 56 102 56 106 0 5 3 10 8 12 4 2 43 66 87 143 43 77 82 142
85 145 3 3 15 23 27 45 30 57 53 98 113 200 29 50 64 110 78 135 14 25 32 57
41 72 110 188 161 280 161 287 0 5 4 11 8 13 4 2 30 41 56 88 27 47 57 100 68
118 l20 32 -896 0 c-534 0 -896 -4 -896 -9z"/>
<path d="M2390 3209 c-58 -100 -116 -200 -129 -223 -21 -37 -261 -453 -308
-533 -126 -218 -193 -337 -193 -344 0 -5 -4 -9 -10 -9 -5 0 -10 -4 -10 -9 0
-5 -29 -59 -65 -120 -36 -60 -65 -114 -65 -120 0 -6 48 -10 128 -10 70 0 132
0 137 -1 6 -1 15 -2 20 -1 13 2 449 2 461 0 5 -1 14 -1 19 0 13 2 449 2 461 0
5 -1 14 -1 19 0 27 5 457 1 465 -4 5 -3 11 -1 14 3 3 5 17 7 31 4 31 -6 33 12
4 53 -11 17 -25 39 -30 50 -5 11 -15 29 -22 40 -7 11 -25 43 -41 70 -16 28
-54 93 -85 145 -30 52 -56 97 -56 100 0 3 -8 16 -17 30 -15 24 -103 176 -156
270 -14 25 -35 61 -47 80 -12 19 -24 42 -28 50 -4 8 -18 33 -32 55 -13 22 -29
49 -35 60 -11 21 -20 36 -113 197 -32 53 -57 102 -57 107 0 6 -4 11 -10 11 -5
0 -10 7 -10 15 0 8 -4 15 -10 15 -5 0 -10 5 -10 11 0 6 -17 39 -37 73 -21 33
-38 63 -38 66 -1 9 -30 50 -35 50 -3 0 -53 -82 -110 -181z"/>
<path d="M1610 1707 c0 -5 23 -47 50 -94 28 -47 50 -86 50 -88 0 -2 14 -24 30
-48 17 -25 30 -47 30 -50 0 -3 20 -40 45 -81 25 -42 45 -78 45 -81 0 -2 18
-34 41 -72 22 -37 45 -75 49 -83 5 -8 29 -50 54 -92 25 -43 46 -82 46 -88 0
-5 5 -10 10 -10 6 0 10 -4 10 -10 0 -5 27 -55 60 -110 33 -55 60 -105 60 -110
0 -6 5 -10 10 -10 6 0 10 -5 10 -10 0 -9 194 -350 239 -420 8 -14 16 -28 16
-32 0 -4 6 -13 13 -20 6 -6 12 -18 12 -26 0 -23 17 -4 53 61 19 34 74 130 122
212 48 83 96 166 107 185 213 371 314 546 321 548 4 2 7 7 7 12 0 4 32 63 70
129 39 67 70 126 70 131 0 4 3 10 8 12 4 2 29 41 56 88 27 47 59 103 72 126
l24 40 -895 0 c-545 1 -895 -3 -895 -9z"/>
<path d="M3621 1681 c12 -20 35 -61 52 -91 17 -30 38 -67 48 -81 10 -15 23
-37 29 -50 6 -13 21 -40 33 -61 12 -20 51 -87 87 -150 35 -62 68 -114 72 -116
4 -2 8 -7 8 -12 0 -7 152 -275 249 -438 17 -29 31 -54 31 -56 0 -2 32 -56 70
-120 39 -65 70 -119 70 -121 0 -3 17 -33 39 -68 21 -35 50 -85 64 -111 l25
-48 43 74 c23 40 49 81 57 91 8 9 12 17 8 17 -4 0 7 20 23 44 17 25 35 55 41
68 5 13 14 30 20 38 30 44 170 292 170 300 0 6 4 10 9 10 5 0 11 8 15 18 9 26
79 149 94 164 6 6 12 15 12 19 0 4 88 159 196 345 108 187 200 346 204 355 8
14 -78 15 -891 15 l-899 1 21 -36z"/>
<path d="M1479 1633 c-7 -16 -28 -52 -46 -81 -18 -29 -33 -54 -33 -56 0 -2
-36 -65 -80 -140 -44 -76 -80 -141 -80 -146 0 -4 -3 -10 -7 -12 -5 -1 -17 -20
-28 -40 -15 -29 -233 -406 -300 -520 -5 -9 -23 -41 -39 -70 -15 -29 -34 -60
-42 -69 -8 -8 -14 -18 -14 -21 0 -4 -27 -52 -60 -108 -33 -56 -60 -103 -60
-105 0 -1 -20 -36 -44 -76 -25 -41 -43 -75 -42 -77 4 -4 1788 -4 1791 0 1 2
-20 41 -47 88 -27 47 -60 103 -73 125 -12 22 -46 81 -75 130 -29 50 -62 106
-72 125 -10 19 -23 42 -28 50 -6 8 -71 121 -145 250 -74 129 -140 242 -145
250 -6 8 -13 22 -17 30 -4 8 -22 38 -40 67 -18 29 -33 54 -33 57 0 3 -42 77
-92 163 -51 87 -99 171 -107 186 -18 34 -24 34 -42 0z"/>
<path d="M3370 1444 c-69 -119 -126 -223 -128 -230 -2 -8 -8 -14 -13 -14 -5 0
-9 -4 -9 -9 0 -5 -22 -47 -48 -93 -27 -46 -55 -94 -63 -108 -8 -14 -18 -28
-24 -32 -5 -4 -6 -8 -2 -8 5 0 0 -12 -11 -27 -11 -16 -29 -45 -40 -65 -12 -20
-80 -139 -151 -263 -72 -125 -131 -230 -131 -235 0 -5 -4 -10 -8 -12 -5 -1
-22 -28 -39 -58 -16 -30 -46 -83 -66 -117 l-36 -63 192 0 c715 -2 1600 0 1602
2 1 2 -20 41 -47 88 -27 47 -60 103 -72 125 -37 65 -60 105 -116 200 -29 50
-64 110 -78 135 -14 25 -72 125 -129 222 -57 98 -103 180 -103 184 0 3 -13 25
-30 49 -16 24 -30 46 -30 49 0 3 -16 30 -35 60 -19 30 -35 57 -35 59 0 3 -29
54 -64 115 -36 61 -76 131 -89 154 -51 89 -62 108 -67 108 -3 0 -61 -97 -130
-216z"/>
<path d="M5454 1587 c-23 -39 -81 -139 -128 -221 -47 -82 -86 -152 -86 -156 0
-5 -3 -10 -7 -12 -5 -1 -17 -20 -28 -40 -19 -36 -128 -223 -152 -263 -7 -11
-16 -27 -20 -35 -7 -15 -115 -203 -133 -230 -5 -8 -21 -37 -36 -65 -14 -27
-32 -57 -40 -66 -8 -8 -14 -18 -14 -22 0 -4 -20 -41 -45 -83 -25 -41 -45 -77
-45 -79 0 -2 -27 -48 -59 -102 -33 -53 -58 -99 -57 -101 4 -3 1788 -4 1791 0
1 2 -19 39 -44 83 -122 208 -247 425 -274 475 -16 30 -36 62 -43 71 -8 8 -14
18 -14 21 0 4 -39 73 -86 155 -48 81 -97 166 -109 188 -13 22 -40 70 -61 107
-22 36 -88 152 -149 257 -60 105 -112 191 -115 191 -3 0 -24 -33 -46 -73z"/>
</g>
</svg>
